<svg width="128" height="128" viewBox="0 0 128 128" fill="none" xmlns="http://www.w3.org/2000/svg">
<path d="M42.6667 101.333V112" stroke="black" stroke-width="10" stroke-linecap="round" stroke-linejoin="round"/>
<path d="M42.6667 69.3334V80" stroke="black" stroke-width="10" stroke-linecap="round" stroke-linejoin="round"/>
<path d="M85.3333 101.333V112" stroke="black" stroke-width="10" stroke-linecap="round" stroke-linejoin="round"/>
<path d="M85.3333 69.3334V80" stroke="black" stroke-width="10" stroke-linecap="round" stroke-linejoin="round"/>
<path d="M64 112V122.667" stroke="black" stroke-width="10" stroke-linecap="round" stroke-linejoin="round"/>
<path d="M64 80V90.6667" stroke="black" stroke-width="10" stroke-linecap="round" stroke-linejoin="round"/>
<path d="M106.667 88.4266C112.273 85.9711 116.865 81.6616 119.67 76.2215C122.475 70.7814 123.323 64.5419 122.073 58.5503C120.822 52.5587 117.548 47.1798 112.8 43.3164C108.053 39.4531 102.121 37.3405 96 37.3333H89.28C87.5894 30.7868 84.3672 24.7357 79.879 19.6789C75.3908 14.6221 69.765 10.7044 63.4654 8.24862C57.1659 5.79287 50.3729 4.8694 43.6463 5.55434C36.9198 6.23929 30.4523 8.51303 24.7771 12.1882C19.1018 15.8633 14.3812 20.8346 11.0043 26.6922C7.62746 32.5499 5.69107 39.1262 5.35475 45.8792C5.01843 52.6321 6.2918 59.3683 9.06991 65.5325C11.848 71.6967 16.0513 77.1125 21.3334 81.3333" stroke="black" stroke-width="10" stroke-linecap="round" stroke-linejoin="round"/>
</svg>
